<svg width="24" height="24" viewBox="0 0 24 24" fill="none" xmlns="http://www.w3.org/2000/svg">
<path d="M13.829 8.24099C13.345 8.27899 12.786 8.31599 12.228 8.39099C11.372 8.50199 10.516 8.65199 9.808 8.98699C8.432 9.54699 7.5 10.739 7.5 12.493C7.5 14.693 8.915 15.81 10.702 15.81C11.298 15.81 11.782 15.737 12.228 15.625C12.936 15.401 13.531 14.991 14.238 14.245C14.648 14.805 14.758 15.066 15.467 15.662C15.653 15.737 15.839 15.737 15.987 15.625C16.5413 15.1615 17.088 14.6891 17.627 14.208C17.812 14.058 17.774 13.835 17.663 13.648C17.253 13.126 16.844 12.678 16.844 11.673V8.31599C16.844 6.89799 16.954 5.59399 15.914 4.62599C15.057 3.83999 13.716 3.54199 12.675 3.54199H12.228C10.329 3.65499 8.319 4.47499 7.872 6.82399C7.798 7.12199 8.022 7.23399 8.171 7.27299L10.255 7.53299C10.478 7.49499 10.589 7.30899 10.626 7.12299C10.813 6.30299 11.483 5.89299 12.228 5.81799H12.378C12.823 5.81799 13.307 6.00499 13.568 6.37599C13.865 6.82399 13.828 7.42099 13.828 7.94299L13.829 8.24099ZM13.829 10.405C13.829 11.263 13.865 11.934 13.419 12.678C13.159 13.2 12.712 13.536 12.228 13.648C12.154 13.648 12.043 13.686 11.93 13.686C11.112 13.686 10.627 13.053 10.627 12.12C10.627 10.927 11.335 10.367 12.227 10.106C12.712 9.99399 13.271 9.95599 13.829 9.95599V10.405ZM20.686 19.265C21.596 18.495 21.98 17.098 22 16.368V16.246C22.0051 16.1262 21.9774 16.0073 21.92 15.902C21.738 15.68 20.402 15.476 19.25 15.821C18.9401 15.9177 18.6468 16.061 18.38 16.246C18.178 16.389 18.218 16.569 18.42 16.55C18.643 16.509 18.926 16.49 19.25 16.448C19.958 16.388 20.787 16.368 20.99 16.631C21.271 16.974 20.666 18.474 20.402 19.123C20.322 19.326 20.503 19.408 20.686 19.265Z" fill="white"/>
<path d="M2.1 16.3684C4.709 18.7384 8.147 20.1574 11.99 20.1574C14.376 20.1574 17.126 19.4874 19.25 18.2124C19.534 18.0494 19.816 17.8664 20.078 17.6644C20.442 17.4024 20.119 16.9954 19.755 17.1574C19.594 17.2174 19.411 17.3004 19.25 17.3604C17.0068 18.2372 14.6205 18.6909 12.212 18.6984C8.612 18.6984 5.134 17.7054 2.322 16.0644C2.059 15.9234 1.877 16.1864 2.1 16.3684Z" fill="white"/>
</svg>
