<svg width="200" height="200" viewBox="0 0 200 200" fill="none" xmlns="http://www.w3.org/2000/svg">
<g id="idea-01">
<path id="Vector" d="M50.7448 125C47.5913 117.911 45.8333 110.026 45.8333 101.716C45.8333 70.8524 70.0845 45.833 99.9999 45.833C129.916 45.833 154.167 70.8524 154.167 101.716C154.167 110.026 152.408 117.911 149.255 125" stroke="#132333" stroke-width="3"/>
<path id="Vector_2" d="M133.333 137.5H66.6667L70.8334 158.333H129.167L133.333 137.5Z" stroke="#132333" stroke-width="3" stroke-linejoin="round"/>
<path id="Vector_3" d="M120.833 158.333L116.667 183.333H83.3334L79.1667 158.333" stroke="#132333" stroke-width="3" stroke-linejoin="round"/>
<path id="Vector_4" d="M100 16.667V25.0003" stroke="#132333" stroke-width="3" stroke-linecap="square" stroke-linejoin="round"/>
<path id="Vector_5" d="M183.333 100H175" stroke="#132333" stroke-width="3" stroke-linecap="square" stroke-linejoin="round"/>
<path id="Vector_6" d="M25.0001 100H16.6667" stroke="#132333" stroke-width="3" stroke-linecap="square" stroke-linejoin="round"/>
<path id="Vector_7" d="M158.92 41.0723L153.027 46.9648" stroke="#132333" stroke-width="3" stroke-linecap="square" stroke-linejoin="round"/>
<path id="Vector_8" d="M46.9734 46.9736L41.0808 41.0811" stroke="#132333" stroke-width="3" stroke-linecap="square" stroke-linejoin="round"/>
</g>
</svg>
