<svg width="138" height="24" viewBox="0 0 138 24" fill="none" xmlns="http://www.w3.org/2000/svg">
<path id="Union" fill-rule="evenodd" clip-rule="evenodd" d="M136.902 0.0190696C136.818 0.0471528 136.746 0.104506 136.701 0.180673C134.82 2.47733 132.873 4.73021 130.883 6.91749C130.248 7.58435 129.638 8.26329 129.025 8.94534C128.814 9.18052 128.602 9.41606 128.389 9.65161L126.464 11.8389C125.658 11.5879 124.785 11.6666 124.036 12.0576C123.67 12.2275 123.327 12.4391 123.014 12.6872C122.805 12.7206 122.599 12.766 122.396 12.8232L121.193 13.3918C120.873 13.5447 120.517 13.6054 120.165 13.5668C119.902 13.4939 119.771 13.2314 119.771 12.7794C119.805 12.6875 119.805 12.5869 119.771 12.4951L119.574 12.2763C119.411 12.1954 119.232 12.1533 119.049 12.1533C118.867 12.1533 118.688 12.1954 118.524 12.2763C118.11 12.4568 117.727 12.7002 117.387 12.9981C117.039 13.2822 116.71 13.5891 116.403 13.9168L115.987 14.3105C115.571 14.7237 115.117 15.0972 114.631 15.4261L114.369 15.5573C114.4 15.4708 114.444 15.3896 114.5 15.3166L114.675 15.0761L114.806 14.9229C115.025 14.5292 115.244 14.1574 115.484 13.7856C115.73 13.4259 116.009 13.0891 116.315 12.7794C116.395 12.7108 116.452 12.62 116.479 12.5186C116.506 12.4172 116.503 12.31 116.468 12.2107C116.44 12.1122 116.386 12.0224 116.314 11.9498C116.241 11.8772 116.151 11.824 116.053 11.7951C115.949 11.7547 115.836 11.7455 115.727 11.7688C115.618 11.7922 115.518 11.8469 115.44 11.9264C115.015 12.3356 114.627 12.7821 114.281 13.2606C114.248 13.3023 114.215 13.3443 114.182 13.3867C113.555 13.7143 112.856 13.8982 112.138 13.9171H111.482C111.233 13.8527 110.992 13.7648 110.76 13.6546C110.796 13.2749 110.695 12.8946 110.475 12.5828C110.371 12.4322 110.235 12.3068 110.076 12.216C109.917 12.1252 109.739 12.0711 109.557 12.0579C109.463 12.0356 109.366 12.0356 109.272 12.0579H108.988H108.835C108.303 12.2252 107.816 12.5083 107.409 12.8848C106.662 13.1605 105.979 13.4426 105.313 13.7416C104.147 14.2515 103.014 14.836 101.923 15.4915C101.712 15.2512 101.542 14.9778 101.42 14.6822C101.36 14.548 101.329 14.4026 101.329 14.2557C101.329 14.1087 101.36 13.9634 101.42 13.8292C101.643 13.4141 101.957 13.055 102.339 12.7792C102.426 12.7159 102.499 12.6341 102.552 12.5397C102.605 12.4452 102.637 12.3404 102.645 12.2324C102.651 12.1275 102.634 12.0227 102.596 11.9247C102.559 11.8267 102.501 11.7377 102.426 11.6638C102.342 11.5945 102.241 11.5479 102.134 11.5288C102.027 11.5096 101.916 11.5184 101.814 11.5544C101.255 11.7149 100.744 12.0078 100.324 12.4068L98.2923 13.4139C97.8099 13.6493 97.3131 13.8538 96.8049 14.0263C96.4666 14.1539 96.0934 14.1539 95.7551 14.0263C95.5801 13.9388 95.5363 13.6107 95.7551 13.0639C95.7877 12.9995 95.8047 12.9283 95.8047 12.8561C95.8047 12.7839 95.7877 12.7127 95.7551 12.6483C95.6638 12.5452 95.5405 12.4759 95.405 12.4515C95.3428 12.425 95.2759 12.4114 95.2082 12.4114C95.1406 12.4114 95.0736 12.425 95.0113 12.4515H94.8582H94.7488C94.6877 12.317 94.589 12.203 94.4645 12.1234C93.9086 11.8037 93.2536 11.7023 92.6271 11.839C91.923 11.985 91.2543 12.2674 90.6586 12.6702C90.0501 13.0759 89.5416 13.6144 89.1713 14.2451C88.8316 14.8099 88.7294 15.4861 88.8869 16.1261C89.0619 16.6948 89.3462 17.0229 89.7618 17.0229C90.265 17.0423 90.762 16.9047 91.1836 16.6292C91.7535 16.2846 92.3014 15.9047 92.824 15.4918L94.3333 14.1795C94.321 14.3072 94.3357 14.4362 94.3764 14.5579C94.417 14.6797 94.4827 14.7915 94.5693 14.8863C94.6558 14.9811 94.7613 15.0567 94.8789 15.1083C94.9965 15.1598 95.1235 15.1862 95.2519 15.1856C96.0074 15.2452 96.7647 15.0938 97.4392 14.7482C98.251 14.4063 98.9377 14.0436 99.5807 13.6804C99.5347 13.9163 99.5278 14.1587 99.5608 14.3979C99.5995 14.7424 99.7035 15.0764 99.867 15.3821C100.028 15.6844 100.219 15.9702 100.436 16.2352V16.3664L100.195 16.5195C100.136 16.5589 100.075 16.5991 100.012 16.6406L100.012 16.6407L100.012 16.6408C99.656 16.8763 99.2413 17.1505 98.7951 17.5038C98.2937 17.8712 97.8448 18.3053 97.4609 18.7943C97.2931 18.9867 97.1706 19.2144 97.1025 19.4605C97.0343 19.7065 97.0223 19.9647 97.0672 20.2161C97.108 20.4225 97.2052 20.6135 97.3481 20.768C97.491 20.9224 97.6739 21.0343 97.8765 21.091C98.2833 21.2119 98.7165 21.2119 99.1233 21.091C99.5918 20.9529 100.04 20.7543 100.457 20.5004C100.815 20.3063 101.159 20.0871 101.486 19.8442C101.875 19.59 102.194 19.243 102.416 18.8345C102.637 18.4259 102.754 17.9685 102.754 17.5038C102.754 17.125 102.648 16.7538 102.448 16.432C103.451 15.7483 104.504 15.1415 105.598 14.6166C105.87 14.4885 106.145 14.3638 106.421 14.2426C106.302 14.4825 106.202 14.732 106.123 14.9888C106.035 15.3555 106.035 15.7377 106.123 16.1044C106.186 16.4699 106.361 16.8065 106.626 17.0668C106.759 17.198 106.923 17.293 107.103 17.3427C107.283 17.3925 107.472 17.3954 107.654 17.3511C108.294 17.2061 108.879 16.8795 109.338 16.4106C109.814 15.9294 110.199 15.3663 110.475 14.7483C111.409 15.0297 112.41 14.9912 113.319 14.6389C113.354 14.6276 113.388 14.616 113.423 14.6042C113.346 14.7588 113.275 14.9162 113.209 15.0761C113.084 15.3351 113.018 15.6193 113.018 15.9073C113.018 16.1952 113.084 16.4794 113.209 16.7384C113.297 16.8953 113.437 17.0163 113.605 17.0803C113.773 17.1443 113.958 17.1471 114.128 17.0883C114.544 16.9843 114.932 16.7902 115.265 16.5197C115.762 16.1388 116.237 15.7299 116.687 15.2948C117.387 14.7699 118.065 14.1136 118.874 13.3262C118.796 13.5783 118.798 13.8487 118.88 14.0996C118.962 14.3506 119.121 14.5696 119.334 14.7261C119.564 14.8565 119.824 14.925 120.088 14.925C120.353 14.925 120.613 14.8565 120.843 14.7261C121.131 14.6003 121.409 14.4541 121.676 14.2888C121.601 14.4624 121.548 14.6459 121.519 14.8347C121.462 15.2192 121.508 15.6121 121.652 15.9729C121.703 16.1015 121.783 16.217 121.885 16.3106C121.987 16.4042 122.108 16.4736 122.241 16.5135C122.373 16.5535 122.513 16.563 122.65 16.5414C122.787 16.5197 122.917 16.4675 123.03 16.3885C123.712 16.0305 124.333 15.5652 124.868 15.0105C125.48 14.3762 125.939 13.8949 126.224 13.545L126.377 13.3481C127.908 11.8608 129.33 10.3516 130.751 8.7986C127.704 12.9669 125.191 17.5007 123.271 22.2941C123.233 22.3488 123.213 22.4137 123.213 22.4801C123.213 22.5465 123.233 22.6113 123.271 22.666C123.313 22.7095 123.364 22.7436 123.421 22.7662C123.477 22.7888 123.538 22.7994 123.599 22.7972C123.664 22.7983 123.727 22.7802 123.782 22.7452C123.836 22.7101 123.879 22.6598 123.905 22.6004C124.058 22.2942 124.211 21.9879 124.343 21.6817C126.399 17.9633 128.462 14.3762 130.533 10.9203C132.62 7.41928 134.944 4.06493 137.488 0.880622C137.53 0.799558 137.552 0.709469 137.552 0.618091C137.552 0.526713 137.53 0.436691 137.488 0.355627C137.461 0.280229 137.417 0.21174 137.361 0.155041C137.304 0.0983421 137.236 0.0548346 137.16 0.0275469C137.078 -0.00598849 136.986 -0.00901368 136.902 0.0190696ZM124.802 13.3919L124.255 13.9825C123.965 14.3105 123.626 14.591 123.249 14.8136C123.03 14.9011 123.03 14.8355 123.03 14.6606V14.6605C123.089 14.4089 123.209 14.1759 123.38 13.9825C123.577 13.7198 123.822 13.4971 124.102 13.3262C124.232 13.2378 124.379 13.1784 124.534 13.152C124.688 13.1256 124.847 13.1328 124.999 13.1732L124.802 13.3919ZM64.054 0.0207988C63.9734 0.0489972 63.9059 0.105653 63.8642 0.180133C62.8458 1.48422 61.7428 2.77418 60.6552 4.04605C59.8274 5.01409 59.0086 5.97165 58.2429 6.91695L55.7494 9.65107L53.8464 11.8384C53.04 11.5874 52.1671 11.666 51.4186 12.0571C51.3933 12.0677 51.3681 12.0785 51.343 12.0895C51.325 12.0848 51.3063 12.0823 51.2874 12.0823C51.2302 12.0823 51.1752 12.1048 51.1343 12.1449L48.444 13.4135C47.9616 13.6489 47.4649 13.8534 46.9566 14.0259C46.6183 14.1535 46.245 14.1535 45.9066 14.0259C45.7317 13.9384 45.7098 13.6103 45.9066 13.0635C45.9393 12.9991 45.9563 12.9279 45.9563 12.8557C45.9563 12.7835 45.9393 12.7123 45.9066 12.6479C45.8201 12.5501 45.7056 12.4814 45.5786 12.4511C45.4455 12.3964 45.2962 12.3964 45.163 12.4511H45.0099C44.9488 12.3166 44.85 12.2026 44.7255 12.123C44.1765 11.8067 43.5295 11.7054 42.9101 11.8386C42.1978 11.9802 41.5211 12.2628 40.9197 12.6698C40.6371 12.8582 40.3761 13.0752 40.1404 13.3168L40.0884 13.3481L38.7323 14.1793C38.2074 14.4637 37.4199 14.8355 36.9387 15.0323C36.4575 15.2292 36.1731 15.2292 36.0419 15.0323C35.9162 14.7739 35.8562 14.4884 35.867 14.2012C35.8886 14.0196 35.8886 13.836 35.867 13.6544C35.8426 13.4937 35.7908 13.3382 35.7139 13.195C35.6077 13.0538 35.4593 12.9501 35.2901 12.899C35.121 12.8478 34.94 12.852 34.7733 12.9107C34.3676 13.0459 33.9896 13.2534 33.6578 13.5232C33.3078 13.8075 33.0016 14.07 32.7609 14.3106L32.5861 14.4637C32.327 14.7464 32.0047 14.9638 31.6455 15.098C31.5559 15.1108 31.4646 15.0882 31.3912 15.0352C31.3178 14.9822 31.2678 14.9028 31.2517 14.8137C31.1958 14.5395 31.1593 14.2618 31.1424 13.9825C31.1121 13.5534 31.0389 13.1283 30.9237 12.7138C30.8618 12.5129 30.7517 12.3301 30.603 12.1815C30.4544 12.0328 30.2715 11.9227 30.0706 11.8608C29.4516 11.767 28.8199 11.9074 28.2989 12.2545C27.61 12.6858 26.9652 13.184 26.3741 13.7418C26.4372 13.6782 26.489 13.6043 26.5272 13.5232L26.9209 12.8888C26.9807 12.7899 27.0124 12.6764 27.0124 12.5608C27.0124 12.4451 26.9807 12.3316 26.9209 12.2326C26.861 12.1465 26.7829 12.0745 26.6922 12.0216C26.6016 11.9687 26.5005 11.9362 26.396 11.9264C26.2792 11.9202 26.1629 11.9453 26.059 11.9991C25.9552 12.053 25.8676 12.1336 25.8054 12.2326C25.6145 12.5462 25.4152 12.8512 25.2179 13.1531L25.2178 13.1533L25.2171 13.1543C25.1081 13.3211 24.9997 13.487 24.8938 13.6528C24.8844 13.6454 24.8747 13.6383 24.8648 13.6316C24.7958 13.589 24.7163 13.5664 24.6352 13.5664C24.5541 13.5664 24.4746 13.589 24.4056 13.6316C20.9828 16.0596 17.3178 18.1267 13.4691 19.7997C11.0656 20.8715 8.56887 21.7208 6.01039 22.337C4.90452 22.6232 3.75686 22.712 2.62012 22.5995C2.00768 22.4682 1.76704 22.1401 1.76704 21.5933C1.86912 21.0683 2.59821 20.2153 3.95433 19.0342C6.04556 17.3402 8.3113 15.8737 10.7131 14.6596C13.8628 12.9316 15.8969 11.8599 16.8156 11.4006C17.2757 11.2273 17.6924 10.9554 18.0362 10.6039C18.3801 10.2525 18.6428 9.8301 18.806 9.36632C18.9591 8.5789 18.5218 7.81337 17.4281 7.0697C17.0119 6.80284 16.5635 6.58969 16.0938 6.43536C15.6022 6.24848 15.1267 6.02171 14.6721 5.75731C14.1909 5.51671 14.1033 5.2105 14.1908 4.88241C14.2783 4.55431 14.7595 4.13873 15.6782 3.65753C17.8001 2.54103 20.1169 1.843 22.5025 1.60147C22.9836 1.53752 23.4731 1.59773 23.9243 1.77643C24.2086 1.95141 24.1868 2.19203 23.7931 2.47638C23.6037 2.39976 23.3919 2.39976 23.2025 2.47638C23.1034 2.52574 23.019 2.60016 22.9576 2.69225C22.8962 2.78434 22.86 2.89088 22.8525 3.0013C22.843 3.12507 22.843 3.24941 22.8525 3.37317C22.8339 3.47991 22.8518 3.58983 22.9034 3.6851C22.955 3.78037 23.0373 3.85539 23.1369 3.8981C23.2331 3.94158 23.3376 3.96412 23.4432 3.96412C23.5488 3.96412 23.653 3.94158 23.7493 3.8981C24.1171 3.76233 24.4752 3.60155 24.821 3.41689C25.2754 3.13794 25.6576 2.7558 25.9366 2.30142C26.0662 2.10633 26.122 1.87138 26.094 1.63885C26.0659 1.40633 25.9557 1.19142 25.7834 1.03276C25.4459 0.760909 25.0567 0.560586 24.6393 0.444015C24.2219 0.327444 23.7851 0.297069 23.3556 0.354702C22.2674 0.421979 21.1896 0.605293 20.1403 0.901525C19.0467 1.20775 18.1718 1.47021 17.5374 1.71081H17.275C16.8594 1.84205 16.2251 2.06081 15.3502 2.43265C14.5084 2.76426 13.7141 3.20554 12.9878 3.74504C12.6788 3.93808 12.423 4.20525 12.2434 4.52229C12.0639 4.83933 11.9665 5.19618 11.9599 5.56046C11.9722 5.86663 12.0878 6.15961 12.2879 6.39164C12.5403 6.63612 12.848 6.81617 13.1848 6.91657L14.9565 7.50718H15.2626C15.9281 7.65096 16.51 8.05187 16.8813 8.62265C17.1219 9.08198 16.9688 9.51948 16.4657 9.95693C15.9473 10.3838 15.3823 10.7507 14.7814 11.0506L14.4314 11.2255C13.819 11.5099 12.791 12.0348 11.4786 12.7348C10.1662 13.4347 8.70076 14.2877 7.10403 15.2501C5.57707 16.1366 4.11517 17.1307 2.72946 18.2249C1.67767 18.9936 0.810881 19.9874 0.192259 21.134C0.0854202 21.3396 0.0214881 21.5648 0.00455587 21.7959C-0.0123764 22.027 0.0180068 22.2592 0.0937349 22.4782C0.169463 22.6972 0.289038 22.8984 0.445111 23.0697C0.601184 23.241 0.790511 23.3787 1.00155 23.4744C1.62036 23.8086 2.3106 23.9886 3.01381 23.9993C3.79396 23.9973 4.5715 23.9093 5.33233 23.7368C6.16351 23.5837 6.88531 23.3869 7.51962 23.2119L7.979 23.0807C10.8406 22.2276 13.6102 21.0919 16.2469 19.6903C18.9358 18.3093 21.5297 16.7515 24.0118 15.0274L23.9243 15.1636L23.7274 15.4917C23.4673 15.8376 23.2472 16.2118 23.0713 16.6072C22.895 16.983 22.8563 17.4088 22.9619 17.8102C22.9761 17.8794 23.0076 17.9438 23.0535 17.9973C23.0994 18.0509 23.1583 18.0919 23.2244 18.1164C23.2888 18.1491 23.3601 18.1661 23.4323 18.1661C23.5045 18.1661 23.5756 18.1491 23.64 18.1164C24.0492 17.8622 24.37 17.488 24.5586 17.0447L25.7179 16.0604C26.2648 15.5573 26.8335 15.0761 27.4022 14.6168C27.9727 14.1499 28.5716 13.7188 29.1957 13.3263C29.3706 13.3044 29.3707 13.3701 29.3707 13.5232C29.4447 13.7284 29.496 13.9411 29.5238 14.1574C29.6769 14.4199 29.6769 14.6824 29.6769 14.9667C29.7143 15.2694 29.7729 15.569 29.852 15.8635C29.8933 16.1321 30.0243 16.3789 30.2238 16.5635C30.3467 16.6575 30.4886 16.7238 30.6396 16.7578C30.7906 16.7918 30.9473 16.7926 31.0987 16.7603C31.5399 16.7124 31.9577 16.5377 32.3017 16.2573C32.6859 15.9752 33.0512 15.6683 33.3953 15.3386C33.7196 15.0087 34.079 14.7154 34.4671 14.4637C34.6858 14.3543 34.8389 14.4855 34.8389 14.8574V15.7542C34.8634 15.9694 34.9466 16.1736 35.0795 16.3447C35.1681 16.4318 35.2749 16.4985 35.392 16.54C35.5091 16.5816 35.6338 16.5971 35.7575 16.5854C36.4642 16.5266 37.1503 16.3178 37.7699 15.9729C38.2222 15.7488 38.6635 15.5039 39.0927 15.2391C39.0582 15.5328 39.0759 15.8331 39.148 16.1257C39.323 16.6944 39.6072 17.0225 40.0228 17.0225C40.5261 17.0419 41.023 16.9043 41.4446 16.6288C42.0213 16.2946 42.5699 15.9143 43.0851 15.4914L43.1891 15.4041C43.6983 14.9766 44.1847 14.5682 44.5943 14.179C44.5821 14.3068 44.5968 14.4358 44.6374 14.5575C44.6781 14.6793 44.7438 14.7911 44.8303 14.8859C44.9169 14.9807 45.0224 15.0563 45.1399 15.1079C45.2575 15.1594 45.3846 15.1858 45.5129 15.1852C46.2685 15.2448 47.0257 15.0934 47.7002 14.7478C48.1786 14.5463 48.6136 14.3376 49.0217 14.1259C48.9094 14.349 48.8327 14.5892 48.7954 14.8379C48.7382 15.2192 48.7752 15.6087 48.9031 15.9724C48.9568 16.1016 49.0385 16.2172 49.1425 16.3108C49.2465 16.4044 49.37 16.4736 49.5042 16.5134C49.6383 16.5532 49.7795 16.5626 49.9177 16.5409C50.0559 16.5192 50.1876 16.467 50.303 16.388C50.9853 16.0299 51.6057 15.5647 52.1404 15.01C52.7529 14.3756 53.1903 13.8944 53.4746 13.5444L53.6496 13.3476L53.6935 13.3017L53.6937 13.3015L53.6937 13.3015C55.1012 11.8291 56.5293 10.335 57.9148 8.79806C54.8752 12.9715 52.3627 17.5043 50.4343 22.2936C50.4069 22.3518 50.3927 22.4153 50.3927 22.4796C50.3927 22.5438 50.4069 22.6073 50.4343 22.6655C50.5319 22.749 50.6559 22.7954 50.7843 22.7967C50.8491 22.7978 50.9127 22.7797 50.9672 22.7446C51.0217 22.7096 51.0645 22.6592 51.0904 22.5998L51.5279 21.6812C53.584 17.9628 55.64 14.3756 57.6961 10.9197C59.7985 7.42848 62.1217 4.07511 64.6516 0.880081C64.6977 0.800279 64.722 0.709698 64.722 0.617551C64.722 0.525403 64.6977 0.434889 64.6516 0.355087C64.6236 0.276525 64.5773 0.205817 64.5164 0.14876C64.4555 0.0917025 64.3819 0.0499517 64.3017 0.0270066C64.2227 -0.00521243 64.1345 -0.00739968 64.054 0.0207988ZM51.9435 13.3913L51.3967 13.9819C51.112 14.3152 50.7715 14.5964 50.3905 14.8131C50.1718 14.9006 50.1718 14.835 50.1718 14.6601V14.66C50.2391 14.4117 50.3583 14.1806 50.5217 13.9819C50.7213 13.7139 50.9747 13.4904 51.2654 13.3257C51.3952 13.2373 51.5424 13.1779 51.6972 13.1515C51.8519 13.1251 52.0105 13.1323 52.1622 13.1726C52.0786 13.2341 52.005 13.3078 51.9435 13.3913ZM40.8103 15.2946V15.7758C40.8103 15.7977 41.0509 15.7758 41.3353 15.557C41.7988 15.2816 42.2378 14.9669 42.6476 14.6165C43.1751 14.2164 43.6722 13.7777 44.1349 13.3041C43.6827 13.1404 43.1873 13.1404 42.735 13.3041C42.2383 13.483 41.7947 13.7839 41.4446 14.179C41.11 14.4809 40.861 14.8657 40.7228 15.2946H40.8103ZM85.9778 21.6156C86.048 21.637 86.1113 21.6766 86.1612 21.7304C86.2112 21.7842 86.246 21.8502 86.2622 21.9218C86.2886 21.9841 86.3023 22.051 86.3023 22.1187C86.3023 22.1863 86.2886 22.2533 86.2622 22.3155C86.2223 22.3761 86.1665 22.4245 86.1009 22.4554C86.0353 22.4862 85.9624 22.4984 85.8904 22.4905C85.1693 22.4746 84.4813 22.1853 83.9655 21.6812C83.5062 21.1781 83.5499 20.2376 84.0968 18.8815C84.5677 17.8629 84.8422 16.7647 84.9061 15.6443C84.9061 15.2287 84.6217 15.0319 84.2499 15.0756C83.7678 15.1337 83.3046 15.298 82.8938 15.5568C82.3907 15.8412 81.9095 16.1255 81.472 16.4317L80.6189 17.066L80.2033 17.3941L78.6285 18.619C78.0027 19.0741 77.3447 19.4834 76.6599 19.8439C76.1459 20.1524 75.553 20.3045 74.9539 20.2814C74.4727 20.2814 74.1884 19.8439 74.1227 19.1221C74.0754 18.2471 74.2723 17.3762 74.6915 16.6067C75.1482 15.6786 75.6978 14.7992 76.3319 13.982C77.01 13.107 77.6661 12.3196 78.3004 11.5759L79.4816 10.1323C79.6615 9.91643 79.9449 9.53783 80.3319 9.02079L80.597 8.66686C81.0659 8.04171 81.5348 7.34674 82.0193 6.62874L82.0194 6.62859L82.1938 6.37017C82.6475 5.67505 83.0425 4.94344 83.3749 4.18288C83.6082 3.54128 83.5645 3.16948 83.2437 3.06741C82.9156 2.93617 82.1501 3.24238 80.9252 3.94231C77.4045 6.06301 74.0746 8.48541 70.973 11.1822C67.8671 13.8726 64.8486 16.6286 61.9176 19.5158L58.4617 22.7967C58.3623 22.8772 58.2395 22.9233 58.1118 22.928C58.0569 22.9534 57.9972 22.9666 57.9367 22.9666C57.8763 22.9666 57.8167 22.9534 57.7619 22.928C57.7036 22.9162 57.6483 22.8927 57.5994 22.8588C57.5505 22.825 57.509 22.7815 57.4775 22.7311C57.445 22.6706 57.4278 22.603 57.4278 22.5343C57.4278 22.4656 57.445 22.3979 57.4775 22.3374C59.2928 18.6239 61.4144 15.0681 63.8206 11.7072C66.1847 8.31572 68.7638 5.07921 71.5417 2.01749C71.6006 1.93785 71.6826 1.87832 71.7766 1.847C71.8705 1.81569 71.9718 1.81407 72.0667 1.84247C72.1555 1.86399 72.2386 1.90445 72.3103 1.96108C72.382 2.01771 72.4407 2.08921 72.4823 2.17061C72.5369 2.25539 72.566 2.35405 72.566 2.4549C72.566 2.55576 72.5369 2.65449 72.4823 2.73926L72.4821 2.73951L72.482 2.73968L72.482 2.73979C72.0884 3.48329 71.6947 4.22678 71.2574 4.92655C71.2216 4.99948 71.1695 5.06318 71.1049 5.11252C71.0404 5.16186 70.9653 5.19551 70.8856 5.21091C70.7501 5.25165 70.6055 5.25165 70.47 5.21091C69.0045 7.04823 67.5828 8.95121 66.2267 10.9198C64.8705 12.8883 63.5582 14.835 62.2677 16.8254L60.649 19.2314C60.9399 18.955 61.2212 18.6689 61.5057 18.3796C61.649 18.2339 61.793 18.0874 61.9395 17.9409C63.7768 16.0818 65.6579 14.2444 67.5828 12.4071C69.5179 10.5469 71.5474 8.78744 73.6634 7.13573C75.7263 5.56317 77.9218 4.17268 80.2252 2.9799C81.3073 2.30858 82.5613 1.96656 83.8343 1.99559C84.5926 2.17057 84.9425 2.73927 84.8842 3.70167C84.3309 5.59235 83.359 7.33425 82.0407 8.7981C80.2034 11.2041 78.8473 12.9539 77.9505 14.0476C77.1468 14.9745 76.4701 16.0043 75.9382 17.1098C75.5008 18.094 75.3694 18.619 75.5663 18.7283C75.7631 18.8377 76.0694 18.7284 76.4632 18.5534C76.8005 18.4034 77.1379 18.1571 77.4752 17.9108L77.4759 17.9103C77.532 17.8693 77.5881 17.8283 77.6442 17.7878L78.5629 17.1317L78.7598 16.9785L79.766 16.2349L81.2314 15.1631L81.4939 14.9881C81.9082 14.6939 82.339 14.4237 82.7843 14.1788C83.2342 13.9146 83.7326 13.7435 84.2499 13.6757C84.4928 13.6415 84.7402 13.6653 84.9721 13.7451C85.204 13.825 85.4138 13.9586 85.5841 14.1351C86.4153 15.01 86.3496 16.4974 85.431 18.5097C84.5123 20.522 84.6873 21.6593 85.9778 21.6156ZM108.969 13.2385C108.791 13.3404 108.624 13.4613 108.47 13.5994C108.169 13.8708 107.928 14.2025 107.763 14.5732V14.8795L107.632 15.4044C107.623 15.572 107.623 15.7399 107.632 15.9075C107.369 16.0388 107.413 16.0824 107.501 16.0606C107.916 15.9288 108.292 15.6958 108.594 15.3825C108.899 15.0847 109.15 14.737 109.338 14.3545C109.338 14.3545 109.338 14.1577 109.491 14.0483L109.251 13.7639C109.216 13.6924 109.198 13.6138 109.198 13.5343C109.198 13.4547 109.216 13.3762 109.251 13.3046C109.272 13.2388 109.306 13.1778 109.351 13.1253C109.396 13.0727 109.451 13.0296 109.513 12.9984C109.427 13.0263 109.342 13.0581 109.259 13.0939C109.225 13.1362 109.182 13.1709 109.133 13.1958C109.082 13.2217 109.026 13.2363 108.969 13.2385ZM90.5493 15.7762V15.295H90.5055C90.6313 14.8708 90.8649 14.4864 91.1836 14.1795C91.5297 13.7798 91.9748 13.4781 92.4741 13.3045C92.9264 13.1408 93.4216 13.1408 93.8739 13.3045C93.4112 13.7781 92.914 14.2168 92.3865 14.6169C91.9767 14.9673 91.5377 15.282 91.0742 15.5575C90.7899 15.7762 90.5493 15.7981 90.5493 15.7762ZM100.742 18.9474C101.066 18.7416 101.312 18.4338 101.442 18.0725C101.461 17.9451 101.454 17.815 101.42 17.6906C101.386 17.5663 101.326 17.4505 101.245 17.3507C100.72 17.7226 100.217 18.0944 99.7139 18.51H99.5827C99.2921 18.7422 99.0214 18.9983 98.7734 19.2755C98.2047 19.9463 98.2922 20.1432 99.0358 19.8661C99.6543 19.663 100.232 19.352 100.742 18.9474Z" fill="#132333"/>
</svg>
