<svg width="160" height="160" viewBox="0 0 160 160" fill="none" xmlns="http://www.w3.org/2000/svg">
<g id="mentoring">
<path id="Vector" d="M26.6797 90.0003V56.667H80.064V90.0003" stroke="#132333" stroke-width="3" stroke-linejoin="round"/>
<path id="Vector_2" d="M126.771 86.6663C126.771 94.0303 120.795 99.9997 113.424 99.9997C106.053 99.9997 100.078 94.0303 100.078 86.6663C100.078 79.3023 106.053 73.333 113.424 73.333C120.795 73.333 126.771 79.3023 126.771 86.6663Z" stroke="#132333" stroke-width="3"/>
<path id="Vector_3" d="M66.7183 26.6663C66.7183 34.0301 60.7432 39.9997 53.3724 39.9997C46.0016 39.9997 40.0264 34.0301 40.0264 26.6663C40.0264 19.3025 46.0016 13.333 53.3724 13.333C60.7432 13.333 66.7183 19.3025 66.7183 26.6663Z" stroke="#132333" stroke-width="3"/>
<path id="Vector_4" d="M90.0654 116.667H146.786V146.667H120.094" stroke="#132333" stroke-width="3" stroke-linejoin="round"/>
<path id="Vector_5" d="M106.865 146.633H80.5073M80.5073 146.633H26.4354C26.4065 146.633 26.3809 146.615 26.3719 146.587L13.4799 107.014C13.4659 106.971 13.498 106.927 13.5433 106.927H66.6493C66.678 106.927 66.7027 106.945 66.712 106.971L80.5073 146.633Z" stroke="#132333" stroke-width="3"/>
</g>
</svg>
